<svg id="Capa_1" data-name="Capa 1" xmlns="http://www.w3.org/2000/svg" viewBox="0 0 377 377"><defs><style>.cls-1,.cls-2,.cls-6{fill:#6d823f;}.cls-1,.cls-6{stroke:#6d823f;}.cls-1,.cls-4,.cls-5,.cls-6{stroke-miterlimit:10;}.cls-3,.cls-4{fill:#7f542d;}.cls-4{stroke:#7f542d;stroke-width:2px;}.cls-5{fill:#879977;stroke:#879977;}.cls-5,.cls-6{stroke-width:0.5px;}</style></defs><path class="cls-1" d="M216.26,252.58a375.54,375.54,0,0,1-48.95,80l-.82-.51a365.51,365.51,0,0,0,42-82.14Z"/><path class="cls-2" d="M232.47,202.08l-5.92-3.31a375.55,375.55,0,0,0,16.65-43.15l6.29,2.34A385.47,385.47,0,0,1,232.47,202.08Z"/><path class="cls-2" d="M232.59,202.43c-2.06-1.07-4.18-2.19-6.23-3.35l-.31-.17.15-.29c1.74-3.45,3.37-7,4.92-10.5s3-7.11,4.42-10.7,2.71-7.22,3.93-10.87,2.36-7.32,3.35-11h0l.11-.39.41.16,6.29,2.34h0l.35.13-.12.32-4.06,11.11q-2,5.55-4.12,11.08c-1.39,3.69-2.87,7.35-4.33,11l-2.25,5.48L234,199.49C233.56,200.45,233.09,201.47,232.59,202.43Zm-.24-.7a26.52,26.52,0,0,1,1.07-2.46l1.28-2.68c.84-1.79,1.63-3.59,2.43-5.4,1.61-3.61,3.08-7.27,4.52-10.94s2.78-7.38,4-11.11,2.41-7.49,3.42-11.29l.23.45h0L243.06,156l.51-.24h0l-4,10.87c-1.32,3.62-2.68,7.22-4,10.83s-2.82,7.18-4.24,10.77-2.93,7.14-4.41,10.71l-.16-.46C228.64,199.5,230.47,200.59,232.35,201.73Z"/><path class="cls-3" d="M340.76,121.31a135.85,135.85,0,0,1,26.69,48.52c1.37,4.41,2.47,8.9,3.4,13.43.42,2.26.8,4.54,1.16,6.82s.63,4.57.8,6.87.45,4.6.48,6.9l.12,3.46c0,1.15,0,2.31,0,3.46l-.05,3.46,0,1.73c0,.58-.08,1.16-.12,1.73l-.5,6.92a145,145,0,0,1-5.56,27.24,142.27,142.27,0,0,1-10.72,25.94,166.48,166.48,0,0,1-35.21,44.85c-28.77,26-66.83,42.92-106.84,47.88l-3.75.47-1.87.24-1.89.15-7.54.6-7.57.27-1.89.06H188l-3.78,0-3.79,0-3.79-.2-3.79-.21-1.89-.11-1.89-.18-7.55-.72L154,369.75a212.7,212.7,0,0,1-29.52-6.83l-7.19-2.37-7.07-2.67c-1.19-.42-2.34-.93-3.49-1.43L103.21,355c-2.33-1-4.57-2.08-6.83-3.18a188.85,188.85,0,0,1-25.82-15.21,181,181,0,0,1-22.74-19.06c-1.71-1.76-3.4-3.54-4.93-5.45l-2.35-2.8-1.18-1.4c-.39-.47-.75-1-1.13-1.44-1.49-1.93-3-3.83-4.46-5.77l-4.18-6a162.25,162.25,0,0,1-13.77-25.27c-2-4.36-3.55-8.85-5.08-13.34l-2.06-6.8L7,242.39a153.93,153.93,0,0,1-3.49-28,143.62,143.62,0,0,1,1.86-28,149,149,0,0,1,7.07-27.25,159.48,159.48,0,0,1,28.9-48.78A177,177,0,0,1,62,90.18,172.05,172.05,0,0,1,86,73.45a193.61,193.61,0,0,1,54.83-21.54l3.62-.84,3.65-.68c2.44-.43,4.86-1,7.33-1.26s4.9-.71,7.36-1,4.94-.43,7.41-.65a133.55,133.55,0,0,1,29.58,1.32c-9.85.83-19.52,1.53-29.12,2.73a207.64,207.64,0,0,0-28.37,5.41A185.52,185.52,0,0,0,90.31,79.53a171.32,171.32,0,0,0-41.13,36.39,149.74,149.74,0,0,0-25.57,46.53,138.9,138.9,0,0,0-5.74,25.49,131.85,131.85,0,0,0-.86,26,140.74,140.74,0,0,0,4,25.63l1.75,6.26L24.9,252c1.54,4.07,3.12,8.13,5,12.06a144.18,144.18,0,0,0,30.73,42.79,172.64,172.64,0,0,0,20.07,17.93,181,181,0,0,0,23.08,14.71c2,1.09,4,2.2,6.15,3.16l3.12,1.5c1,.5,2.08,1,3.16,1.44l6.41,2.71,6.55,2.44A196.59,196.59,0,0,0,156.34,358a179.48,179.48,0,0,0,28.17,3.22l3.56.13,1.78.06h1.78l7.12-.07,7.11-.38,1.78-.09,1.77-.18,3.54-.35A184.46,184.46,0,0,0,267.61,346c2.13-1,4.31-1.87,6.41-2.91l6.27-3.15,6.09-3.43c1-.56,2-1.18,3-1.8l3-1.85a174.61,174.61,0,0,0,22.06-16.68A158.78,158.78,0,0,0,348.07,274l3.06-5.94,2.75-6.08c.49-1,.86-2,1.27-3.07l1.22-3.09c.87-2,1.49-4.17,2.21-6.26a148.3,148.3,0,0,0,5.89-25.76l.68-6.57c.05-.55.12-1.1.16-1.65l.07-1.65.14-3.3c0-1.1.12-2.2.13-3.3l0-3.31c0-2.2-.11-4.4-.19-6.61s-.33-4.4-.48-6.6-.51-4.39-.81-6.58c-.68-4.38-1.4-8.76-2.47-13.08l-.78-3.24-.89-3.23c-.55-2.16-1.27-4.28-1.93-6.42s-1.49-4.23-2.23-6.36-1.6-4.21-2.5-6.28A189.38,189.38,0,0,0,340.76,121.31Z"/><path class="cls-4" d="M230.4,259.92c0,4.7,5.65,6.29,9.13,8.17,3.74,2,10,4,10,9.57,0,3.58-4.32,6.18-10.29,6.18-3.23,0-6.83-.91-9-2.83-.5-.5-.92-.91-1.22-.91s-.42.33-.44,1.24l-.1,2.79h-.32l.28-7.36h.31V277c0,4.28,5.5,6.43,10.46,6.43,5.73,0,9.77-2.4,9.77-5.75,0-5.32-5.88-7.1-9.71-9.15-3.34-1.8-9.45-3.56-9.45-8.59,0-3.37,3.72-5.69,8.55-5.69a10.21,10.21,0,0,1,7.16,2.73c.36.39.63.56.8.56s.32-.29.32-.89c0-.31-.09-1.63-.11-2.69h.34l.31,7.35c0,.08-.06.14-.17.14a.14.14,0,0,1-.16-.14l-.07-.56c-.52-4.6-5.19-6.07-8.42-6.07C233.69,254.66,230.4,256.86,230.4,259.92Z"/><path class="cls-4" d="M261.05,254.33v.29h-1.57c-2.88,0-3.15.45-3.15,1v12.25h19.53V255.62c0-.55-.27-1-3.15-1h-1.58v-.29h9.25v.29h-.84c-2.88,0-3.15.45-3.15,1v26.72c0,.57.27,1.11,3.15,1.11h.84v.29h-9.25v-.29h1.58c2.88,0,3.15-.54,3.15-1.11V268.26H256.33v14.08c0,.57.27,1.11,3.15,1.11h1.57v.29h-9.24v-.29h.84c2.88,0,3.15-.54,3.15-1.11V255.62c0-.55-.27-1-3.15-1h-.84v-.29Z"/><path class="cls-4" d="M282.86,269c0-8.59,5.65-14.8,13.44-14.8s13.45,6.21,13.45,14.8-5.65,14.81-13.45,14.81S282.86,277.63,282.86,269Zm26.36,0c0-8.35-5.42-14.41-12.92-14.41s-12.91,6.06-12.91,14.41,5.42,14.42,12.91,14.42S309.22,277.39,309.22,269Z"/><path class="cls-4" d="M325.05,254.33c8.9,0,12,6.17,12,10.06s-3.15,10.06-12,10.06h-8.3v7.93c0,.56.27,1.07,3.15,1.07h.73v.29h-8.4v-.29h.84c2.88,0,3.15-.51,3.15-1.07V255.59c0-.6-.37-1-3.15-1h-.84v-.29ZM325,274.06c8.57,0,11.51-5.86,11.51-9.67s-2.85-9.67-11.51-9.67h-8.23v19.34Z"/><path class="cls-5" d="M141.67,194.38a2.32,2.32,0,0,1,2.36.83,2.22,2.22,0,0,1,.38,2.46,2.41,2.41,0,0,1-2.08,1.53q-10.38,1.4-21.15,2.69a2.27,2.27,0,0,0-2.08,1.67l-9.54,30.68a2.51,2.51,0,0,1-1.09,1.44,2.26,2.26,0,0,1-1.74.32,2.34,2.34,0,0,1-1.51-1,2.46,2.46,0,0,1-.48-1.72,72.35,72.35,0,0,0-1.51-27.53,2.46,2.46,0,0,0-1-1.29,2.25,2.25,0,0,0-1.56-.37q-11.33,1-21.25,1.76a2.19,2.19,0,0,0-2.17,1.66l-7.84,27.63a2.29,2.29,0,0,1-1.13,1.48,2.39,2.39,0,0,1-1.84.19,2.51,2.51,0,0,1-1.51-1.12,2.2,2.2,0,0,1-.24-1.85l6.9-24.47a2.09,2.09,0,0,0-.43-2.09,2.28,2.28,0,0,0-2-.88q-42.12,2-45.52-5.75-1.8-4.06,4.34-8.89a74,74,0,0,1,24.23-12.33,56.57,56.57,0,0,1,26.2-2,2.46,2.46,0,0,0,1.75-.28,2,2,0,0,0,1-1.39l12.66-44.59a2.36,2.36,0,0,1,1.79-1.76,2.32,2.32,0,0,1,2.41.65,2.36,2.36,0,0,1,.62,2.41L85.86,177.23a2.39,2.39,0,0,0,.18,1.62A2.36,2.36,0,0,0,87.27,180a29.73,29.73,0,0,1,3.12,1.49,33.5,33.5,0,0,1,14.83,15.57,2.22,2.22,0,0,0,2.36,1.39l6.61-.74a2.28,2.28,0,0,0,2.08-1.67l21.34-69a2.28,2.28,0,0,1,1.18-1.39,2.53,2.53,0,0,1,1.89-.18,2.25,2.25,0,0,1,1.46,1.16,2.45,2.45,0,0,1,.19,1.9l-20.11,64.88a2.4,2.4,0,0,0,2.64,3.06Q133.37,195.49,141.67,194.38ZM28.15,198.83c.69,1.55,5,2.53,13,3a273.58,273.58,0,0,0,31-.56,2.25,2.25,0,0,0,2.27-1.67L78.49,185a2.27,2.27,0,0,0-.28-1.9,2.35,2.35,0,0,0-1.61-1.07,44.72,44.72,0,0,0-6.42-.46,65.32,65.32,0,0,0-39.1,14,15.93,15.93,0,0,0-2,1.8,4.39,4.39,0,0,0-.8,1.07Zm54.4,1.76q6.9-.47,14.45-1.11a2.45,2.45,0,0,0,1.94-1.39,2.15,2.15,0,0,0-.15-2.32,28.6,28.6,0,0,0-10.76-10A26.34,26.34,0,0,0,84,183.91L80.1,197.62a2.08,2.08,0,0,0,.42,2.14A2.31,2.31,0,0,0,82.55,200.59ZM110,216.07l3.12-10a2.17,2.17,0,0,0-.47-2.18,2.19,2.19,0,0,0-2.08-.79h-.09a2.33,2.33,0,0,0-1.75.93,2.21,2.21,0,0,0-.33,1.95A58.92,58.92,0,0,1,110,216.07Z"/><path class="cls-5" d="M202.21,210.6a2.45,2.45,0,0,1,1.79.75,2.36,2.36,0,0,1,.76,1.76,2.06,2.06,0,0,1-.76,1.66,55.07,55.07,0,0,1-26.53,14.37,60.34,60.34,0,0,1-12.71,1.35A38.89,38.89,0,0,1,154,229.05a.86.86,0,0,0-1,.46,10.06,10.06,0,0,1-3.73,4.45,10.46,10.46,0,0,1-5.62,1.76,11.6,11.6,0,0,1-5.76-1.48,10.06,10.06,0,0,1-5.38-12.42,19.13,19.13,0,0,1,5.2-8.81q4-4,7.46-4h.09a2.36,2.36,0,0,1,1.75.74,2.4,2.4,0,0,1,.71,1.71,2.2,2.2,0,0,1-.76,1.67,2.52,2.52,0,0,1-1.79.7q-1.51,0-4.25,2.92a15.13,15.13,0,0,0-3.69,6.25,5.29,5.29,0,0,0,.1,4,7.89,7.89,0,0,0,6.61,3.89,5,5,0,0,0,3.4-1.81c1.26-1.36,1.51-2.32.75-2.87a7.47,7.47,0,0,1-2.26-10.38q3.67-6.12,7.36-4,1.8,1,2.36,4.08a16.8,16.8,0,0,1-.09,6.39,2,2,0,0,0,.38,1.63,2.34,2.34,0,0,0,1.41,1,50.2,50.2,0,0,0,43.26-13.62A2.17,2.17,0,0,1,202.21,210.6Zm-51.66,11.22a18.56,18.56,0,0,0,.19-4.54,10.25,10.25,0,0,1-.66,1,2.74,2.74,0,0,0-.48,1.85A2.31,2.31,0,0,0,150.55,221.82Z"/><path class="cls-5" d="M279.46,213.94a2.69,2.69,0,0,1,1.8.65,2.25,2.25,0,0,1,.8,1.67,2.22,2.22,0,0,1-.71,1.76c-.38.43-.91,1-1.6,1.67s-2,1.79-3.88,3.33-3.81,3-5.76,4.36a56.38,56.38,0,0,1-7.13,4.13,48.28,48.28,0,0,1-8.26,3.24,30.09,30.09,0,0,1-8.83,1.07,22.6,22.6,0,0,1-20.45-12.42,3.27,3.27,0,0,0-.42-.75c-.29-.43-.54-.78-.76-1.06s-.5-.6-.85-1a3.5,3.5,0,0,0-1.13-.83,2.26,2.26,0,0,0-1.28-.19q-7.55.19-21.34,16a2.3,2.3,0,0,1-3,.56,2.12,2.12,0,0,1-1.27-2.69l4.72-20.39a2.25,2.25,0,0,1,1.09-1.49,2.44,2.44,0,0,1,1.89-.32,2.28,2.28,0,0,1,1.51,1.11,2.55,2.55,0,0,1,.33,1.81l-2.17,9.18a.58.58,0,0,0,.37.69A.69.69,0,0,0,204,224q10.49-9.73,17.66-9.27a7.38,7.38,0,0,1,5.1,2.41,22.53,22.53,0,0,1,2.84,3.62,21.65,21.65,0,0,0,9.06,8.8,18.61,18.61,0,0,0,6.14,1.39,25.85,25.85,0,0,0,6.09-.32,32.57,32.57,0,0,0,5.91-1.67,42.83,42.83,0,0,0,5.52-2.55q2.51-1.4,5-3.06c1.66-1.11,3.07-2.13,4.2-3.06s2.23-1.85,3.31-2.78,1.77-1.57,2.12-1.94.61-.65.8-.84A2.19,2.19,0,0,1,279.46,213.94Z"/><path class="cls-5" d="M353.88,214.36a2.31,2.31,0,0,1,1.7.78,2.42,2.42,0,0,1,.62,1.77,2.24,2.24,0,0,1-.81,1.67l-2.21,1.9q-1.38,1.16-5,3.75T341,229a76.3,76.3,0,0,1-8.69,4.21,46.37,46.37,0,0,1-9.64,2.93,30.93,30.93,0,0,1-9.72.13,23.08,23.08,0,0,1-9.35-3.38,19,19,0,0,1-6.33-6.49,2.4,2.4,0,0,0-2-1.2,2.22,2.22,0,0,0-2.13,1,41.43,41.43,0,0,1-7.22,8.43c-2.62,2.29-5,3.46-7.23,3.52h-.09a6.25,6.25,0,0,1-3.17-1.06,5.65,5.65,0,0,1-2.12-2.55,14.88,14.88,0,0,1,.85-13.53,31.42,31.42,0,0,1,8.74-10.9,31.74,31.74,0,0,1,12.7-6.16,2.32,2.32,0,0,1,2.41.65,2.2,2.2,0,0,1,.56,2.36,2.44,2.44,0,0,1-1.84,1.72A26.67,26.67,0,0,0,286,213.8a26.28,26.28,0,0,0-7.37,9.22,10.52,10.52,0,0,0-.94,9.27c.38.62.66.93.85.93q1.61,1,6.23-5.75a102.62,102.62,0,0,0,8.31-14.64,2.27,2.27,0,0,1,2.65-1.39,2.25,2.25,0,0,1,2.07,2c.07.31.15.72.24,1.25s.36,1.48.8,2.87a35.07,35.07,0,0,0,1.51,3.94,20.85,20.85,0,0,0,2.46,3.94,13.78,13.78,0,0,0,3.49,3.29,18.09,18.09,0,0,0,8.08,2.78,26.34,26.34,0,0,0,8.59-.46,47.93,47.93,0,0,0,8.65-2.92,64.15,64.15,0,0,0,7.83-4q3.31-2,6.52-4.36t4.39-3.29c.79-.65,1.37-1.16,1.75-1.53A2.49,2.49,0,0,1,353.88,214.36Z"/><path class="cls-6" d="M263.76,3.51l.18.18s.05.05,0,0,0,0,.05,0l.25.17c.21.15.47.39.72.59.5.41,1,.88,1.52,1.36l2.82,2.81,5.1,5.38c1.63,1.85,3.3,3.66,4.91,5.53s3.19,3.76,4.71,5.69a196,196,0,0,1,16.61,24.26A159.64,159.64,0,0,1,312.91,76a136.66,136.66,0,0,1,4,14,109.09,109.09,0,0,1,2.21,14.4,81.87,81.87,0,0,1-.2,14.6,56.67,56.67,0,0,1-3.35,14.33,40.71,40.71,0,0,1-7.78,12.85,33.94,33.94,0,0,1-5.82,5.07l-.8.57c-.27.18-.55.34-.82.51l-1.67,1c-1.16.59-2.29,1.23-3.49,1.73a58.13,58.13,0,0,1-14.94,4.26,92.13,92.13,0,0,1-15.46.95,140.46,140.46,0,0,1-30.47-4.08l.18,0c-4.62-.62-9.24-1.33-13.8-2.32a103.57,103.57,0,0,1-13.48-3.85,57.48,57.48,0,0,1-12.56-6.3c-.5-.31-1-.68-1.43-1s-.95-.7-1.4-1.08c-.87-.79-1.79-1.53-2.58-2.4a25.8,25.8,0,0,1-4.23-5.59,28.37,28.37,0,0,1-1.54-3.13,30.82,30.82,0,0,1-1-3.31,27.12,27.12,0,0,1-.77-6.81,36.25,36.25,0,0,1,.76-6.75,50,50,0,0,1,1.87-6.48,71.21,71.21,0,0,1,5.87-12.11A113.75,113.75,0,0,1,197.81,84a184.77,184.77,0,0,1,18.14-20q2.45-2.34,5-4.61c.84-.76,1.69-1.51,2.56-2.25l2.64-2.14q5.24-4.29,10.26-8.81a186.21,186.21,0,0,0,18.83-19.18,63,63,0,0,0,7.5-11,21.82,21.82,0,0,0,2.16-6.14,9.89,9.89,0,0,0,0-3.21,9.12,9.12,0,0,0-.43-1.55l-.33-.74A6.12,6.12,0,0,1,263.76,3.51Zm.12.14a6.16,6.16,0,0,1,.52.56c.14.25.29.5.4.75s.22.53.3.79.15.55.2.82a10.69,10.69,0,0,1,0,3.34,22.07,22.07,0,0,1-2.11,6.3,62.84,62.84,0,0,1-7.39,11.17,187.64,187.64,0,0,1-18.6,19.56q-5,4.61-10.16,9l-2.59,2.16c-.84.74-1.67,1.49-2.5,2.26q-2.47,2.28-4.86,4.65A182.09,182.09,0,0,0,199.48,85.1c-5.25,7.11-10,14.66-12.85,22.82a47.09,47.09,0,0,0-1.7,6.2,34.42,34.42,0,0,0-.62,6.31,24.65,24.65,0,0,0,1.75,9.18,24.44,24.44,0,0,0,1.41,2.8,24.05,24.05,0,0,0,3.89,5,29,29,0,0,0,2.37,2.19c.42.35.87.66,1.3,1a16.07,16.07,0,0,0,1.33,1,55.09,55.09,0,0,0,11.94,5.9,101.29,101.29,0,0,0,13.08,3.68c4.46.95,9,1.62,13.54,2.21l.09,0,.09,0a145.87,145.87,0,0,0,29.77,4,89.56,89.56,0,0,0,14.93-.86,55,55,0,0,0,14.17-4c1.13-.46,2.18-1.06,3.26-1.6l1.55-.93.77-.47.74-.52a33.32,33.32,0,0,0,5.41-4.63,38.09,38.09,0,0,0,7.44-12,54.82,54.82,0,0,0,3.4-13.72,79.33,79.33,0,0,0,.38-14.21A109.67,109.67,0,0,0,315,90.38a131.59,131.59,0,0,0-3.73-13.88c-.82-2.26-1.54-4.56-2.47-6.79l-1.33-3.36L306,63l-.73-1.66-.79-1.64-1.57-3.27-1.69-3.22c-.57-1.07-1.11-2.15-1.73-3.19a195.45,195.45,0,0,0-16.21-24.32c-1.49-1.95-3.09-3.81-4.62-5.72s-3.22-3.71-4.82-5.57l-5-5.42c-.82-.87-1.67-1.66-2.41-2.43-.38-.4-.73-.81-1.1-1.26l-.59-.72-.4-.49L264.2,4c-.11-.14-.14-.16-.17-.2Z"/><path class="cls-2" d="M274.71,35.88a117.45,117.45,0,0,1,6.37,31.18,112.58,112.58,0,0,1-2.39,31.4,124.24,124.24,0,0,1-4.44,15.41,131.51,131.51,0,0,1-6.6,15,143.89,143.89,0,0,1-19.31,28.31l-4.37-2A145.18,145.18,0,0,0,264,127.88a132.31,132.31,0,0,0,7.11-14.64,125.07,125.07,0,0,0,5-15.12,112.65,112.65,0,0,0,3.65-31.06A115.35,115.35,0,0,0,274.71,35.88Z"/><path class="cls-2" d="M274.68,35.79c.24.61.57,1.31.78,2l.63,1.94c.4,1.29.79,2.59,1.15,3.9.73,2.61,1.36,5.24,1.91,7.89a114,114,0,0,1-.5,48.28A126.17,126.17,0,0,1,274,115.37a135.22,135.22,0,0,1-6.71,14.9,145.12,145.12,0,0,1-18.62,27.15v0l-.19.22-.28-.13-4.36-2h0l-.46-.21.34-.36a146.27,146.27,0,0,0,19.43-26.12,135.48,135.48,0,0,0,7.24-14.46,127.06,127.06,0,0,0,5.27-15.2,112.72,112.72,0,0,0,2.61-47.66c-.42-2.64-.94-5.27-1.54-7.88-.31-1.3-.63-2.6-1-3.9l-.54-1.93C275,37.16,274.83,36.43,274.68,35.79Zm.06.18c.23.65.47,1.2.64,1.81l.55,1.94q.52,2,1,3.9c.62,2.62,1.14,5.25,1.58,7.89a112.74,112.74,0,0,1-2.41,47.81,126.37,126.37,0,0,1-5.22,15.29,133.58,133.58,0,0,1-7.2,14.54,146.38,146.38,0,0,1-19.41,26.32l-.12-.58h0l4.35,2-.47.1,0,0A144.48,144.48,0,0,0,266.71,130a132.34,132.34,0,0,0,6.75-14.81,127,127,0,0,0,4.71-15.51,113.31,113.31,0,0,0,2.77-32.1,115.41,115.41,0,0,0-2.06-16q-.79-4-1.87-7.89c-.36-1.3-.74-2.6-1.13-3.89l-.62-1.94C275,37.23,274.93,36.64,274.74,36Z"/><path class="cls-2" d="M280.88,70.05a120.83,120.83,0,0,0-12.08.54A111.19,111.19,0,0,0,257,72.29a71.23,71.23,0,0,0-11.41,3.23A44.85,44.85,0,0,0,235.28,81a36.74,36.74,0,0,1,10.4-5.2,75.43,75.43,0,0,1,11.49-2.65A110.93,110.93,0,0,1,269,72c4-.17,8-.21,11.92,0Z"/><path class="cls-2" d="M280.63,70.3a1.64,1.64,0,0,1-.51.1h-.73l-1.48,0c-1,0-2,0-3,.1-2,.09-3.94.24-5.91.4a113.39,113.39,0,0,0-11.74,1.6,72.94,72.94,0,0,0-11.43,3.13A58.08,58.08,0,0,0,235.28,81h0a36.83,36.83,0,0,1,10.58-5.29,79.84,79.84,0,0,1,11.52-2.67,110.34,110.34,0,0,1,11.75-1.22c3.93-.23,7.87-.3,11.81-.17h0l-.38.36A17.41,17.41,0,0,1,280.63,70.3Zm.5-.51c.07.72.13,1.49.14,2.24v.39l-.38,0h0a115.08,115.08,0,0,0-11.75-.17,110,110,0,0,0-11.74,1,72.08,72.08,0,0,0-11.52,2.57A36.65,36.65,0,0,0,235.28,81h0a37.06,37.06,0,0,1,10.43-5.84,73.61,73.61,0,0,1,11.49-3.26A110,110,0,0,1,269,70.22c2-.19,3.95-.32,5.94-.41,1,0,2-.08,3-.1l1.49,0h.75A5.17,5.17,0,0,1,281.13,69.79Z"/><path class="cls-2" d="M273.06,109.63c-4.88.82-9.63,1.83-14.33,3s-9.32,2.42-13.82,3.89A96.13,96.13,0,0,0,232,121.69a50.57,50.57,0,0,0-5.75,3.35,26,26,0,0,0-4.82,4.08c2.76-3,6.65-5.31,10.78-7.2a103.38,103.38,0,0,1,13.11-4.76c4.55-1.33,9.21-2.47,13.94-3.46s9.53-1.85,14.35-2.51Z"/><path class="cls-2" d="M272.88,109.92a3.36,3.36,0,0,1-.63.18l-.86.15-1.74.31c-1.16.21-2.32.43-3.47.66q-3.46.69-6.9,1.49c-4.59,1.07-9.12,2.29-13.59,3.7a98.7,98.7,0,0,0-13,5,49.56,49.56,0,0,0-6,3.37,27.15,27.15,0,0,0-5.22,4.28h0a6.21,6.21,0,0,1,1.09-1.26c.41-.38.84-.75,1.28-1.11a32.56,32.56,0,0,1,2.78-2,49.7,49.7,0,0,1,6.13-3.24,105.47,105.47,0,0,1,13.18-4.75c4.51-1.32,9.09-2.45,13.7-3.42s9.26-1.82,13.95-2.49h0l-.3.43A12,12,0,0,1,272.88,109.92Zm.37-.57c.26.55.52,1.15.73,1.74l.13.37-.43.05h0c-4.67.62-9.31,1.43-13.92,2.36s-9.18,2-13.69,3.3a107.08,107.08,0,0,0-13.18,4.62,49,49,0,0,0-6.11,3.17,28.81,28.81,0,0,0-2.78,2c-.44.35-.86.71-1.28,1.09a13.5,13.5,0,0,1-1.26,1.11h0a27.16,27.16,0,0,1,5.16-4.35,51.06,51.06,0,0,1,6-3.45,99.46,99.46,0,0,1,13-5.21c4.46-1.47,9-2.74,13.57-3.86q3.44-.84,6.9-1.58c1.16-.25,2.31-.49,3.48-.71l1.74-.33.88-.16A7.32,7.32,0,0,1,273.25,109.35Z"/><path class="cls-2" d="M278,90c-4.93.4-9.69,1-14.39,1.76s-9.3,1.65-13.71,2.79a82.12,82.12,0,0,0-12.61,4.18A36.92,36.92,0,0,0,227,105a33.12,33.12,0,0,1,10.44-6.12l3.06-1.13,3.19-1c1.05-.35,2.18-.59,3.27-.89s2.19-.57,3.32-.8c4.48-1,9.13-1.78,13.85-2.42s9.55-1.11,14.41-1.38Z"/><path class="cls-2" d="M277.75,90.29a3.67,3.67,0,0,1-.63.12l-.82.06-1.68.15-3.36.35q-3.36.39-6.7.89c-4.45.66-8.89,1.45-13.26,2.49a93.19,93.19,0,0,0-12.86,3.93A39.34,39.34,0,0,0,227,105h0a23.78,23.78,0,0,1,5.41-3.89,46.58,46.58,0,0,1,6.15-2.77,92.7,92.7,0,0,1,13-3.74c4.42-1,8.9-1.71,13.39-2.32s9-1.08,13.55-1.36h0l-.34.51A9.93,9.93,0,0,1,277.75,90.29Zm.4-.63a16.31,16.31,0,0,1,.75,1.51l.21.48-.55,0h0c-4.51.22-9,.64-13.51,1.18s-9,1.23-13.38,2.16a91.15,91.15,0,0,0-13,3.57A35.69,35.69,0,0,0,227,105h0a39.46,39.46,0,0,1,11.36-6.9A93.22,93.22,0,0,1,251.2,94c4.37-1.1,8.81-1.95,13.27-2.68,2.22-.36,4.46-.69,6.7-1,1.12-.14,2.25-.27,3.37-.39l1.69-.18.86-.08A9.46,9.46,0,0,1,278.15,89.66Z"/><path class="cls-2" d="M268.27,121.94a80.14,80.14,0,0,1,7.59,2.81,73.37,73.37,0,0,1,7.19,3.48,48.66,48.66,0,0,1,6.53,4.28A24.34,24.34,0,0,1,294.7,138a28.59,28.59,0,0,0-5-5.59,51.31,51.31,0,0,0-6.29-4.6,75,75,0,0,0-7-3.84c-2.43-1.17-4.89-2.28-7.49-3.26Z"/><path class="cls-2" d="M268.63,121.8c.12,0,.17-.08.24,0l.47.16.94.32c.63.22,1.25.45,1.87.69,1.24.47,2.47,1,3.68,1.51a76.54,76.54,0,0,1,7.09,3.51,49,49,0,0,1,6.55,4.36,24.56,24.56,0,0,1,5.24,5.68h0c-.43-.49-.79-1-1.2-1.52s-.83-1-1.27-1.46a37.49,37.49,0,0,0-2.81-2.68,52.46,52.46,0,0,0-6.39-4.51,77.1,77.1,0,0,0-7-3.7c-2.39-1.11-4.81-2.17-7.28-3.07h0l.49-.18A5.74,5.74,0,0,1,268.63,121.8Zm-.72.29a10.3,10.3,0,0,1,.66-1.55l.17-.31.32.13h0c2.49,1,4.91,2.07,7.28,3.23a75.56,75.56,0,0,1,6.93,3.86,53.91,53.91,0,0,1,6.34,4.67,37.83,37.83,0,0,1,2.77,2.75c.44.49.85,1,1.25,1.49a10,10,0,0,1,1.07,1.61h0a24.28,24.28,0,0,0-5.36-5.54,49.2,49.2,0,0,0-6.61-4.19,78.42,78.42,0,0,0-7.13-3.33c-1.22-.49-2.45-1-3.69-1.41l-1.87-.64-.94-.3-.47-.14A2.94,2.94,0,0,1,267.91,122.09Z"/><path class="cls-2" d="M279.82,84.49c2.72.87,5.41,1.89,8,3s5.18,2.29,7.65,3.6a51.14,51.14,0,0,1,7,4.38,23.73,23.73,0,0,1,3,2.63,16.56,16.56,0,0,1,2.35,3,21.66,21.66,0,0,0-5.23-5.79,54.43,54.43,0,0,0-6.78-4.65c-2.41-1.42-4.92-2.72-7.49-3.93s-5.19-2.35-7.92-3.39Z"/><path class="cls-2" d="M280.18,84.35c.13,0,.19-.07.27,0l.48.17,1,.37,1.95.75c1.3.51,2.59,1,3.86,1.61,2.56,1.11,5.07,2.31,7.51,3.62a57,57,0,0,1,7,4.4,23.37,23.37,0,0,1,3.09,2.69,16.35,16.35,0,0,1,2.49,3.21h0a24,24,0,0,0-5.58-5.9,56.17,56.17,0,0,0-6.88-4.56c-2.4-1.36-4.88-2.61-7.4-3.76s-5.09-2.23-7.7-3.19h0l.49-.18A3.82,3.82,0,0,1,280.18,84.35Zm-.72.27a9.61,9.61,0,0,1,.62-1.41l.17-.3.32.13h0c2.61,1,5.16,2.17,7.68,3.37s5,2.5,7.36,3.92A55.55,55.55,0,0,1,302.44,95a32.09,32.09,0,0,1,3,2.81c.46.5.9,1,1.31,1.56a8.16,8.16,0,0,1,1.07,1.73h0A16.35,16.35,0,0,0,305.33,98a24,24,0,0,0-3.11-2.67,50.3,50.3,0,0,0-7.07-4.3q-3.7-1.87-7.58-3.42c-1.29-.51-2.59-1-3.9-1.46l-2-.66-1-.32-.5-.15A2.49,2.49,0,0,1,279.46,84.62Z"/><path class="cls-2" d="M275.63,102.42c2.69,1.22,5.36,2.57,7.95,4s5.14,3,7.59,4.59a59.22,59.22,0,0,1,7,5.36,27.83,27.83,0,0,1,3,3.17,15.07,15.07,0,0,1,2.24,3.64,22.34,22.34,0,0,0-5.09-6.93,63.45,63.45,0,0,0-6.74-5.68c-2.38-1.76-4.86-3.41-7.4-5s-5.11-3.07-7.79-4.48Z"/><path class="cls-2" d="M276,102.31c.14,0,.22,0,.31,0l.5.24,1,.49,2,1q2,1,3.91,2.12,3.87,2.19,7.54,4.67a58.25,58.25,0,0,1,6.93,5.44,26.38,26.38,0,0,1,3,3.2,15.18,15.18,0,0,1,2.21,3.7h0a7.25,7.25,0,0,1-.51-1c-.17-.32-.34-.63-.53-.94a19.52,19.52,0,0,0-1.25-1.77,37.25,37.25,0,0,0-2.95-3.22,61.11,61.11,0,0,0-6.79-5.61c-2.39-1.73-4.87-3.35-7.4-4.88l-7.76-4.36h0l.54-.15A7.58,7.58,0,0,1,276,102.31Zm-.74.23A13.33,13.33,0,0,1,276,101l.2-.34.33.19h0l7.71,4.52c2.52,1.58,5,3.24,7.35,5a62.77,62.77,0,0,1,6.72,5.76,35,35,0,0,1,2.91,3.3,19.73,19.73,0,0,1,1.23,1.8q.27.48.51,1a3.77,3.77,0,0,1,.39,1h0a15.07,15.07,0,0,0-2.29-3.64,27,27,0,0,0-3-3.13,58.45,58.45,0,0,0-7-5.27q-3.7-2.4-7.61-4.49c-1.3-.7-2.61-1.38-3.94-2l-2-1-1-.46L276,103A3.39,3.39,0,0,1,275.26,102.54Z"/></svg>