<svg id="Capa_1" data-name="Capa 1" xmlns="http://www.w3.org/2000/svg" viewBox="0 0 451 211"><defs><style>.cls-1{fill:#7f542d;stroke:#7f542d;stroke-width:2px;}.cls-1,.cls-2{stroke-miterlimit:10;}.cls-2{fill:#879977;stroke:#879977;stroke-width:0.5px;}</style></defs><path class="cls-1" d="M281.31,176.44c0,6.28,7.55,8.4,12.21,10.91,5,2.69,13.39,5.3,13.39,12.8,0,4.79-5.78,8.25-13.75,8.25-4.32,0-9.13-1.21-12-3.78-.67-.67-1.23-1.21-1.63-1.21s-.56.44-.59,1.66l-.14,3.72h-.42l.37-9.83h.42v.28c0,5.72,7.35,8.59,14,8.59,7.66,0,13-3.21,13-7.68,0-7.11-7.86-9.49-13-12.23-4.46-2.41-12.63-4.76-12.63-11.48,0-4.5,5-7.61,11.42-7.61,3,0,7.05,1,9.58,3.65.48.52.84.75,1.06.75s.43-.39.43-1.19c0-.41-.12-2.17-.15-3.59h.45l.42,9.82a.22.22,0,0,1-.44,0l-.09-.75c-.7-6.15-6.93-8.12-11.26-8.12C285.72,169.4,281.31,172.35,281.31,176.44Z"/><path class="cls-1" d="M322.28,169v.39h-2.1c-3.84,0-4.21.6-4.21,1.35v16.36h26.11V170.7c0-.75-.37-1.35-4.22-1.35h-2.1V169h12.35v.39H347c-3.85,0-4.21.6-4.21,1.35v35.71c0,.75.36,1.47,4.21,1.47h1.12v.39H335.76v-.39h2.1c3.85,0,4.22-.72,4.22-1.47V187.58H316v18.83c0,.75.37,1.47,4.21,1.47h2.1v.39H309.94v-.39h1.12c3.84,0,4.21-.72,4.21-1.47V170.7c0-.75-.37-1.35-4.21-1.35h-1.12V169Z"/><path class="cls-1" d="M351.43,188.62c0-11.49,7.55-19.79,18-19.79s18,8.3,18,19.79-7.55,19.78-18,19.78S351.43,200.1,351.43,188.62Zm35.23,0c0-11.17-7.24-19.27-17.26-19.27s-17.27,8.1-17.27,19.27,7.25,19.26,17.27,19.26S386.66,199.79,386.66,188.62Z"/><path class="cls-1" d="M407.81,169c11.91,0,16,8.25,16,13.45s-4.21,13.45-16,13.45H396.73v10.6c0,.75.36,1.42,4.2,1.42h1v.39H390.69v-.39h1.12c3.85,0,4.21-.67,4.21-1.42V170.64c0-.8-.5-1.29-4.21-1.29h-1.12V169Zm-.08,26.38c11.45,0,15.38-7.83,15.38-12.93s-3.82-12.93-15.38-12.93h-11v25.86Z"/><path class="cls-2" d="M161.39,95.53a3.11,3.11,0,0,1,3.16,1.11,2.94,2.94,0,0,1,.5,3.28,3.23,3.23,0,0,1-2.78,2q-13.87,1.86-28.27,3.59a3.06,3.06,0,0,0-2.78,2.23l-12.75,41a3.34,3.34,0,0,1-1.45,1.92,3.07,3.07,0,0,1-2.33.43,3.11,3.11,0,0,1-2-1.3,3.18,3.18,0,0,1-.63-2.29,96.89,96.89,0,0,0-2-36.8,3.3,3.3,0,0,0-1.33-1.73,3.1,3.1,0,0,0-2.08-.5q-15.15,1.36-28.4,2.36a2.92,2.92,0,0,0-2.91,2.23L64.83,150a3.06,3.06,0,0,1-1.52,2,3.21,3.21,0,0,1-2.46.25,3.38,3.38,0,0,1-2-1.49,3,3,0,0,1-.31-2.48l9.21-32.7a2.74,2.74,0,0,0-.57-2.79,3,3,0,0,0-2.71-1.18Q8.16,114.36,3.61,104q-2.4-5.46,5.8-11.89A99,99,0,0,1,41.79,75.58q18.36-5.58,35-2.73a3.19,3.19,0,0,0,2.33-.37,2.65,2.65,0,0,0,1.33-1.86L97.39,11a3.33,3.33,0,1,1,6.44,1.73l-17,59.84A3.26,3.26,0,0,0,87,74.77a3.15,3.15,0,0,0,1.64,1.55,39.75,39.75,0,0,1,4.17,2,44.82,44.82,0,0,1,19.82,20.82,3,3,0,0,0,3.15,1.86l8.84-1a3,3,0,0,0,2.78-2.23L156,5.58a3.06,3.06,0,0,1,1.58-1.86,3.39,3.39,0,0,1,2.52-.25A3.08,3.08,0,0,1,162,5a3.28,3.28,0,0,1,.25,2.54L135.39,94.29a3.21,3.21,0,0,0,3.53,4.08Q150.29,97,161.39,95.53ZM9.67,101.47q1.38,3.11,17.42,4t41.4-.75a3,3,0,0,0,3-2.23L76.94,83a3,3,0,0,0-.37-2.54,3.1,3.1,0,0,0-2.15-1.42,59,59,0,0,0-8.58-.62A87.29,87.29,0,0,0,13.58,97.14a20.79,20.79,0,0,0-2.71,2.41A5.89,5.89,0,0,0,9.79,101Zm72.7,2.35q9.21-.61,19.32-1.48a3.27,3.27,0,0,0,2.58-1.86,2.84,2.84,0,0,0-.19-3.1A38.32,38.32,0,0,0,89.69,84a36.12,36.12,0,0,0-5.42-2.48L79.09,99.86a2.79,2.79,0,0,0,.57,2.85A3.06,3.06,0,0,0,82.37,103.82Zm36.73,20.7,4.17-13.39a2.85,2.85,0,0,0-.63-2.91,3,3,0,0,0-2.78-1h-.12a3.08,3.08,0,0,0-2.34,1.24A2.94,2.94,0,0,0,117,111,79.11,79.11,0,0,1,119.1,124.52Z"/><path class="cls-2" d="M242.3,117.21a3.3,3.3,0,0,1,2.4,1,3.19,3.19,0,0,1,1,2.35,2.82,2.82,0,0,1-1,2.23,71.27,71.27,0,0,1-17.1,12.45A70.73,70.73,0,0,1,209.23,142a80.76,80.76,0,0,1-17,1.8,52,52,0,0,1-14.32-1.92,1.13,1.13,0,0,0-1.39.62,13.66,13.66,0,0,1-5,6,14,14,0,0,1-7.51,2.35,15.49,15.49,0,0,1-7.7-2,13.46,13.46,0,0,1-7.19-16.6,25.42,25.42,0,0,1,6.94-11.77q5.29-5.33,10-5.33h.13a3.1,3.1,0,0,1,2.33,1,3.23,3.23,0,0,1,.95,2.29,2.93,2.93,0,0,1-1,2.23,3.43,3.43,0,0,1-2.4.93q-2,0-5.68,3.9a20.32,20.32,0,0,0-4.92,8.37,7,7,0,0,0,.12,5.39,6.92,6.92,0,0,0,3.79,3.78,6.82,6.82,0,0,0,5,1.42A6.68,6.68,0,0,0,169,142c1.69-1.81,2-3.09,1-3.84a10,10,0,0,1-3-13.87q4.94-8.17,9.85-5.33,2.4,1.36,3.16,5.45a22.63,22.63,0,0,1-.13,8.55,2.62,2.62,0,0,0,.5,2.17,3.16,3.16,0,0,0,1.9,1.3,66.51,66.51,0,0,0,31.18-2.23,65.84,65.84,0,0,0,26.63-16A2.9,2.9,0,0,1,242.3,117.21Zm-69,15a24.56,24.56,0,0,0,.25-6.07,12.43,12.43,0,0,1-.89,1.36A3.73,3.73,0,0,0,172,130,3.08,3.08,0,0,0,173.26,132.2Z"/><path class="cls-2" d="M345.55,121.67a3.59,3.59,0,0,1,2.4.86,3,3,0,0,1,1.08,2.23,3,3,0,0,1-.95,2.36c-.51.57-1.22,1.32-2.15,2.23s-2.65,2.39-5.17,4.46-5.09,4-7.7,5.82a74.61,74.61,0,0,1-9.53,5.51,64.89,64.89,0,0,1-11,4.34,39.84,39.84,0,0,1-11.8,1.42,34.36,34.36,0,0,1-12.05-2.35,35,35,0,0,1-15.28-14.25,4.56,4.56,0,0,0-.57-1c-.37-.57-.71-1.05-1-1.42s-.68-.81-1.14-1.3a4.71,4.71,0,0,0-1.52-1.12,3,3,0,0,0-1.7-.25q-10.1.25-28.53,21.44a3.05,3.05,0,0,1-4,.74,2.83,2.83,0,0,1-1.71-3.59l6.31-27.26a3,3,0,0,1,1.46-2,3.23,3.23,0,0,1,2.52-.44,3.1,3.1,0,0,1,2,1.49A3.33,3.33,0,0,1,246,122l-2.9,12.26a.77.77,0,0,0,.5.93.92.92,0,0,0,1.14-.18q14-13,23.6-12.39a9.82,9.82,0,0,1,6.82,3.22,30,30,0,0,1,3.79,4.83A29,29,0,0,0,291,142.48a25.49,25.49,0,0,0,8.21,1.86,35,35,0,0,0,8.14-.44,42,42,0,0,0,7.89-2.23,57.45,57.45,0,0,0,7.38-3.4q3.35-1.86,6.69-4.09c2.23-1.49,4.11-2.85,5.62-4.09s3-2.48,4.42-3.71,2.38-2.11,2.84-2.61.82-.86,1.07-1.11A2.91,2.91,0,0,1,345.55,121.67Z"/><path class="cls-2" d="M445,122.22a3.13,3.13,0,0,1,2.27,1.06,3.18,3.18,0,0,1,.82,2.35,3,3,0,0,1-1.07,2.23c-.76.66-1.75,1.51-3,2.54s-3.43,2.71-6.62,5a115.74,115.74,0,0,1-9.72,6.32,101.49,101.49,0,0,1-11.62,5.63,62.71,62.71,0,0,1-12.87,3.91,41.49,41.49,0,0,1-13,.18,30.84,30.84,0,0,1-12.5-4.52,25.6,25.6,0,0,1-8.46-8.67,3.19,3.19,0,0,0-2.71-1.61,3,3,0,0,0-2.84,1.36,55.18,55.18,0,0,1-9.66,11.27q-5.24,4.59-9.65,4.71h-.13a8.41,8.41,0,0,1-4.23-1.42,7.53,7.53,0,0,1-2.84-3.41,19.94,19.94,0,0,1,1.14-18.09A42.69,42.69,0,0,1,367,108.29a3.12,3.12,0,0,1,3.22.86,3,3,0,0,1,.76,3.16,3.26,3.26,0,0,1-2.46,2.29,35.68,35.68,0,0,0-14.27,6.88,35.1,35.1,0,0,0-9.84,12.33,14,14,0,0,0-1.26,12.39c.5.82.88,1.23,1.13,1.23q2.15,1.37,8.33-7.68a137.12,137.12,0,0,0,11.11-19.57,3.34,3.34,0,0,1,6.31.87c.08.41.19,1,.32,1.67a35.44,35.44,0,0,0,1.07,3.84,46.13,46.13,0,0,0,2,5.27,28,28,0,0,0,3.28,5.26,18.49,18.49,0,0,0,4.67,4.4,24.35,24.35,0,0,0,10.8,3.72,35.58,35.58,0,0,0,11.48-.62,63.75,63.75,0,0,0,11.55-3.91,85.05,85.05,0,0,0,10.48-5.39q4.41-2.72,8.71-5.82c2.86-2.06,4.81-3.53,5.87-4.4s1.83-1.55,2.33-2A3.31,3.31,0,0,1,445,122.22Z"/></svg>